<svg width="216" height="40" fill="none" xmlns="http://www.w3.org/2000/svg"><path fill-rule="evenodd" clip-rule="evenodd" d="M18.87.398l14.508 8.81c.836.522 1.187 1.232 1.224 2.061v17.462c-.044.83-.388 1.546-1.224 2.062l-14.509 8.81a3.29 3.29 0 01-3.136 0l-14.51-8.81C.389 30.277.038 29.568 0 28.73V11.269c.044-.83.388-1.546 1.224-2.062L15.733.397a3.29 3.29 0 013.136 0z" fill="#226EE0"/><path d="M34.602 17.901v2.645c-1.406.643-1.55 1.493-1.55 1.493-6.108-.553-8.757-1.623-8.757-1.623 1.871-1.768 5.816-2.584 10.307-2.515zm0-4.874v3.015c-2.439-.116-4.912.04-7.364.574l-.1.022h-.004c-1.055.229-4.174.903-5.476 2.575 0 0-1.595-1.07-1.864-2.044-.61-2.248.89-4.172 2.485-4.532 4.097-.93 8.381-.555 12.323.39zm-3.999-5.502l2.77 1.672c.839.523 1.192 1.232 1.229 2.06v.02c-5.88-1.457-12.407-1.68-18.583 1.071 0 0 .317-1.334-.457-1.948-1.29-1.022-4.759-.288-4.759-.288 6.67-3.157 13.51-3.653 19.8-2.587z" fill="#fff"/><path fill-rule="evenodd" clip-rule="evenodd" d="M5.704 25.31c-1.207 1.502-1.172 3.15.68 3.967-.516-4.75 11.23-5.567 26.668-5.579 0 0-9.472-.277-13.492-3.884-4.35-3.907-.141-7.081-.141-7.081-2.122.517-14.301 7.96-13.55 10.64.292.541.597 1.13.362 1.42l-.527.516zm1.393-2.827c.352-.601.833-.77.926-.71.153.109.106.818 0 1.323-.07.373-.89.938-1.172 1.01 0 0-.234-.805.246-1.623z" fill="#fff"/><path d="M60.459 13.066h-6.03v15.706H50.79V13.066h-6.03V9.838h15.7v3.226zm5.165 15.973a6.3 6.3 0 01-2.656-.56 6.64 6.64 0 01-2.098-1.547 7.074 7.074 0 01-1.355-2.293 8.39 8.39 0 01-.478-2.854c0-1.013.16-1.955.478-2.826a7.64 7.64 0 011.302-2.293 5.764 5.764 0 011.992-1.547 5.535 5.535 0 012.47-.56c1.045 0 1.975.249 2.79.747a5.103 5.103 0 011.912 1.973v-2.293h3.56v13.786h-3.56v-2.266a5.215 5.215 0 01-1.753 1.866c-.726.445-1.594.667-2.603.667zm4.357-8.694a4.24 4.24 0 00-.85-1.413 3.984 3.984 0 00-1.275-.986 3.214 3.214 0 00-1.461-.347 3.27 3.27 0 00-1.488.346 3.761 3.761 0 00-1.168.96 4.74 4.74 0 00-.744 1.387 4.658 4.658 0 00-.266 1.573c0 .765.16 1.458.478 2.08.337.623.788 1.12 1.355 1.494.584.373 1.24.56 1.966.56.53 0 1.009-.098 1.434-.293a3.595 3.595 0 001.169-.827 5.04 5.04 0 00.85-1.227v-3.306zm15.055-2.453c-1.08 0-2.046.213-2.895.64-.85.41-1.462 1.005-1.833 1.787v8.453h-3.56V14.8h3.267v2.986c.496-.96 1.125-1.715 1.886-2.266.762-.551 1.568-.854 2.418-.907h.451c.106 0 .195.01.266.027v3.253zm7.3 10.96a6.07 6.07 0 01-2.55-.533 6.226 6.226 0 01-1.992-1.547 7.282 7.282 0 01-1.275-2.266 8.114 8.114 0 01-.452-2.72c0-1.014.16-1.956.479-2.827a7.342 7.342 0 011.328-2.293 5.95 5.95 0 012.045-1.547c.797-.373 1.674-.56 2.63-.56 1.08 0 2.027.249 2.842.747a6.042 6.042 0 012.019 1.946V14.8h3.108v13.306c0 1.387-.337 2.57-1.01 3.547-.655.996-1.567 1.751-2.736 2.267-1.168.533-2.497.8-3.984.8-1.505 0-2.78-.258-3.825-.773a7.609 7.609 0 01-2.683-2.134l1.94-1.893a5.543 5.543 0 001.991 1.546c.815.374 1.674.56 2.577.56.761 0 1.452-.142 2.072-.426a3.23 3.23 0 001.514-1.28c.39-.569.584-1.307.584-2.213v-1.76a4.754 4.754 0 01-1.965 1.866 5.742 5.742 0 01-2.657.64zM93.532 26c.39 0 .761-.062 1.115-.187a3.96 3.96 0 001.78-1.253c.23-.302.407-.605.531-.907V20.32a4.311 4.311 0 00-.903-1.44 3.815 3.815 0 00-1.275-.934 3.214 3.214 0 00-1.46-.346c-.55 0-1.046.115-1.488.346-.443.232-.824.56-1.142.987a4.74 4.74 0 00-.744 1.387 5.127 5.127 0 00-.24 1.573 4.344 4.344 0 001.09 2.907c.354.373.761.666 1.222.88.478.213.983.32 1.514.32zm16.649 3.039c-1.115 0-2.125-.187-3.028-.56a7.116 7.116 0 01-2.311-1.573 7.517 7.517 0 01-1.488-2.294 7.566 7.566 0 01-.504-2.746c0-1.334.292-2.552.876-3.654a6.873 6.873 0 012.55-2.64c1.116-.675 2.426-1.013 3.932-1.013 1.523 0 2.824.338 3.905 1.013a6.55 6.55 0 012.47 2.64 7.308 7.308 0 01.876 3.52c0 .213-.008.436-.026.667-.018.213-.036.391-.053.533h-10.758c.071.711.274 1.334.611 1.867a3.66 3.66 0 001.328 1.227c.549.266 1.133.4 1.753.4a4.1 4.1 0 001.992-.507c.638-.356 1.072-.818 1.302-1.387l3.055.854a5.748 5.748 0 01-1.461 1.893 6.984 6.984 0 01-2.205 1.306c-.85.303-1.789.454-2.816.454zm-3.639-8.373h7.278c-.071-.712-.274-1.325-.611-1.84a3.245 3.245 0 00-1.275-1.227 3.532 3.532 0 00-1.779-.454 3.49 3.49 0 00-1.754.454 3.517 3.517 0 00-1.275 1.227c-.318.515-.513 1.128-.584 1.84zm21.297 7.386c-.301.125-.664.267-1.089.427a7.86 7.86 0 01-1.381.373c-.479.107-.965.16-1.461.16a4.61 4.61 0 01-1.807-.346 2.96 2.96 0 01-1.328-1.094c-.319-.515-.478-1.182-.478-2v-8.026h-1.833v-2.747h1.833v-4.534h3.56V14.8h2.921v2.747h-2.921v6.826c.017.48.15.827.398 1.04.248.213.558.32.93.32a3.26 3.26 0 001.089-.186c.354-.125.637-.232.85-.32l.717 2.826zm18.057-18.213v18.933h-3.639v-8.08h-8.553v8.08h-3.666V9.84h3.666v7.653h8.553V9.84h3.639zm13.046 18.933v-2.4a5.009 5.009 0 01-1.302 1.494 5.469 5.469 0 01-1.726.88 6.668 6.668 0 01-1.966.293c-.832 0-1.549-.125-2.152-.373a3.75 3.75 0 01-1.434-1.12c-.354-.48-.611-1.058-.77-1.734a10.078 10.078 0 01-.239-2.267V14.8h3.559v7.973c0 .622.071 1.182.213 1.68.141.48.389.862.743 1.147.355.267.842.4 1.461.4.443 0 .886-.098 1.328-.293.443-.196.851-.48 1.222-.854a5.13 5.13 0 00.93-1.387V14.8h3.56v13.973h-3.427zm19.615 0h-3.56v-7.84c0-1.12-.195-1.938-.584-2.453-.39-.516-.93-.773-1.621-.773-.478 0-.965.124-1.46.373a4.479 4.479 0 00-1.302 1.04 3.9 3.9 0 00-.85 1.493v8.16h-3.56V14.8h3.215v2.587a5.062 5.062 0 011.354-1.52 5.743 5.743 0 011.886-.96 7.49 7.49 0 012.285-.347c.867 0 1.576.16 2.125.48.566.302.991.72 1.275 1.253.301.516.504 1.102.611 1.76.124.658.186 1.325.186 2v8.72zm11.358-.72c-.301.125-.664.267-1.089.427-.425.16-.886.284-1.382.373-.478.107-.965.16-1.461.16a4.609 4.609 0 01-1.806-.346 2.954 2.954 0 01-1.328-1.094c-.319-.515-.478-1.182-.478-2v-8.026h-1.833v-2.747h1.833v-4.534h3.559V14.8h2.922v2.747h-2.922v6.826c.018.48.151.827.399 1.04.248.213.558.32.929.32a3.26 3.26 0 001.089-.186c.355-.125.638-.232.85-.32l.718 2.826zm8.127.987c-1.116 0-2.125-.187-3.028-.56a7.095 7.095 0 01-2.311-1.573 7.499 7.499 0 01-1.488-2.294 7.567 7.567 0 01-.505-2.746c0-1.334.293-2.552.877-3.654a6.873 6.873 0 012.55-2.64c1.116-.675 2.426-1.013 3.931-1.013 1.523 0 2.825.338 3.905 1.013a6.544 6.544 0 012.47 2.64 7.298 7.298 0 01.877 3.52c0 .213-.009.436-.027.667-.017.213-.035.391-.053.533h-10.758c.071.711.275 1.334.611 1.867a3.66 3.66 0 001.328 1.227c.549.266 1.134.4 1.754.4a4.1 4.1 0 001.992-.507c.637-.356 1.071-.818 1.301-1.387l3.055.854a5.721 5.721 0 01-1.461 1.893 6.984 6.984 0 01-2.205 1.306c-.85.303-1.788.454-2.815.454zm-3.639-8.373h7.278c-.071-.712-.275-1.325-.611-1.84a3.258 3.258 0 00-1.275-1.227 3.535 3.535 0 00-1.78-.454c-.637 0-1.222.152-1.753.454a3.502 3.502 0 00-1.275 1.227c-.319.515-.514 1.128-.584 1.84zm21.373-2.774c-1.08 0-2.045.213-2.895.64-.85.41-1.461 1.005-1.833 1.787v8.453h-3.56V14.8h3.268v2.986c.496-.96 1.124-1.715 1.886-2.266.761-.551 1.567-.854 2.417-.907h.452c.106 0 .194.01.265.027v3.253z" fill="#292E36"/></svg>