<svg width="96" height="96" fill="none" xmlns="http://www.w3.org/2000/svg"><path fill-rule="evenodd" clip-rule="evenodd" d="M48 96c26.51 0 48-21.49 48-48S74.51 0 48 0 0 21.49 0 48s21.49 48 48 48zM36.405 31c.246.002.487.067.698.189l27.215 15.649c.208.12.38.29.5.493a1.32 1.32 0 010 1.338c-.12.204-.292.374-.5.493L37.103 64.811a1.424 1.424 0 01-1.4.012 1.374 1.374 0 01-.514-.495 1.322 1.322 0 01-.189-.68V32.352c0-.238.065-.473.189-.679.123-.206.3-.377.514-.495a1.43 1.43 0 01.702-.177z" fill="#fff"/></svg>