<svg width="216" height="216" fill="none" xmlns="http://www.w3.org/2000/svg"><g filter="url(#filter0_d_52_53402)"><path fill-rule="evenodd" clip-rule="evenodd" d="M108 140c26.51 0 48-21.49 48-48s-21.49-48-48-48-48 21.49-48 48 21.49 48 48 48zM96.405 75c.246.002.487.067.698.189l27.215 15.649c.208.12.38.29.5.493a1.326 1.326 0 01-.5 1.831l-27.215 15.649a1.421 1.421 0 01-1.4.012 1.375 1.375 0 01-.514-.495 1.322 1.322 0 01-.189-.679V76.351c0-.238.065-.472.189-.679.123-.206.3-.377.515-.495.213-.118.455-.179.701-.177z" fill="#fff"/></g><defs><filter id="filter0_d_52_53402" x="0" y="0" width="216" height="216" filterUnits="userSpaceOnUse" color-interpolation-filters="sRGB"><feFlood flood-opacity="0" result="BackgroundImageFix"/><feColorMatrix in="SourceAlpha" values="0 0 0 0 0 0 0 0 0 0 0 0 0 0 0 0 0 0 127 0" result="hardAlpha"/><feOffset dy="16"/><feGaussianBlur stdDeviation="30"/><feComposite in2="hardAlpha" operator="out"/><feColorMatrix values="0 0 0 0 0.160784 0 0 0 0 0.180392 0 0 0 0 0.211765 0 0 0 0.5 0"/><feBlend in2="BackgroundImageFix" result="effect1_dropShadow_52_53402"/><feBlend in="SourceGraphic" in2="effect1_dropShadow_52_53402" result="shape"/></filter></defs></svg>