<svg width="121" height="120" fill="none" xmlns="http://www.w3.org/2000/svg"><g clip-path="url(#clip0_785_224)"><circle cx="60.667" cy="60" r="44" fill="#226EE0"/><g filter="url(#filter0_b_785_224)" fill="#fff" fill-opacity=".8"><path fill-rule="evenodd" clip-rule="evenodd" d="M51.87 78.9c11.598 0 24.945-8.462 29.813-18.9 4.867-10.438-.589-18.9-12.187-18.9-11.598 0-24.946 8.462-29.813 18.9-4.868 10.438.589 18.9 12.187 18.9zm-1.68 3.6c13.808 0 29.698-10.074 35.493-22.5 5.794-12.426-.701-22.5-14.508-22.5-13.807 0-29.698 10.074-35.492 22.5-5.795 12.426.7 22.5 14.508 22.5z"/><path d="M79.667 15h4l-41.968 90h-4l41.968-90z"/><path d="M111.522 58.2l-1.679 3.6h-100l1.68-3.6h99.999z"/></g></g><defs><clipPath id="clip0_785_224"><path fill="#fff" transform="translate(.667)" d="M0 0h120v120H0z"/></clipPath><filter id="filter0_b_785_224" x="1.843" y="7" width="117.679" height="106" filterUnits="userSpaceOnUse" color-interpolation-filters="sRGB"><feFlood flood-opacity="0" result="BackgroundImageFix"/><feGaussianBlur in="BackgroundImageFix" stdDeviation="4"/><feComposite in2="SourceAlpha" operator="in" result="effect1_backgroundBlur_785_224"/><feBlend in="SourceGraphic" in2="effect1_backgroundBlur_785_224" result="shape"/></filter></defs></svg>