<svg width="120" height="120" fill="none" xmlns="http://www.w3.org/2000/svg"><g clip-path="url(#clip0_785_171)"><g filter="url(#filter0_f_785_171)"><ellipse cx="53.5" cy="59" rx="71.5" ry="78" fill="#FF8C38"/></g><g filter="url(#filter1_f_785_171)"><ellipse cx="89.5" cy="98" rx="60.5" ry="60" fill="#FF7A5C"/></g><path d="M60 63.5h-7.333c-3.89 0-7.62-1.62-10.371-4.503C39.546 56.113 38 52.203 38 48.125V43h7.333c3.89 0 7.62 1.62 10.371 4.503C58.454 50.387 60 54.297 60 58.375V84m0-15.375c0-4.078 1.545-7.988 4.296-10.872 2.75-2.883 6.48-4.503 10.37-4.503H82v2.563c0 4.077-1.545 7.988-4.296 10.871-2.75 2.884-6.48 4.504-10.37 4.504H60" stroke="#F5F8FF" stroke-width="4" stroke-linecap="round" stroke-linejoin="round"/></g><defs><filter id="filter0_f_785_171" x="-38" y="-39" width="183" height="196" filterUnits="userSpaceOnUse" color-interpolation-filters="sRGB"><feFlood flood-opacity="0" result="BackgroundImageFix"/><feBlend in="SourceGraphic" in2="BackgroundImageFix" result="shape"/><feGaussianBlur stdDeviation="10" result="effect1_foregroundBlur_785_171"/></filter><filter id="filter1_f_785_171" x="9" y="18" width="161" height="160" filterUnits="userSpaceOnUse" color-interpolation-filters="sRGB"><feFlood flood-opacity="0" result="BackgroundImageFix"/><feBlend in="SourceGraphic" in2="BackgroundImageFix" result="shape"/><feGaussianBlur stdDeviation="10" result="effect1_foregroundBlur_785_171"/></filter><clipPath id="clip0_785_171"><path d="M20 30a8 8 0 018-8h40c17.673 0 32 14.327 32 32v40a8 8 0 01-8 8H52c-17.673 0-32-14.327-32-32V30z" fill="#fff"/></clipPath></defs></svg>