<svg width="120" height="120" fill="none" xmlns="http://www.w3.org/2000/svg"><g clip-path="url(#clip0_785_342)"><rect x="16" y="16" width="88" height="88" rx="44" fill="url(#paint0_radial_785_342)"/><path opacity=".3" d="M90.745 56.91l4.891-4.279m4.876-2.484l-4.709 12.32c-.422 1.105-.633 1.657-.945 1.824a.948.948 0 01-.868.014c-.317-.157-.546-.702-1.004-1.793l-2.123-5.066a2 2 0 00-.161-.336.95.95 0 00-.16-.182 1.927 1.927 0 00-.3-.197l-4.75-2.786c-1.02-.599-1.53-.898-1.644-1.232a.948.948 0 01.13-.86c.206-.286.782-.422 1.933-.694l12.837-3.031c.905-.214 1.357-.321 1.649-.19a.952.952 0 01.525.6c.09.306-.076.74-.408 1.607v.002h-.002zM50.928 26.305l5.729-3.067m5.31-1.322l-7.363 10.942c-.66.982-.99 1.472-1.332 1.564a.948.948 0 01-.85-.181c-.273-.225-.373-.807-.573-1.973l-.928-5.415a1.991 1.991 0 00-.081-.363.951.951 0 00-.114-.214 1.938 1.938 0 00-.25-.26l-3.999-3.784c-.859-.813-1.289-1.22-1.324-1.57a.947.947 0 01.32-.808c.265-.233.857-.237 2.04-.242l13.19-.061c.93-.005 1.394-.007 1.65.186a.948.948 0 01.376.702c.018.319-.241.704-.76 1.475v.001h-.002zM33.058 53.511l5.23-3.858m5.065-2.071l-5.715 11.887c-.513 1.066-.769 1.599-1.094 1.739a.946.946 0 01-.866-.058c-.303-.183-.486-.745-.851-1.87l-1.696-5.225a2.002 2.002 0 00-.133-.348.945.945 0 00-.143-.196 1.93 1.93 0 00-.284-.22l-4.502-3.171c-.967-.681-1.45-1.022-1.536-1.364a.95.95 0 01.2-.846c.23-.268.815-.356 1.984-.532l13.045-1.955c.92-.138 1.379-.207 1.66-.053a.95.95 0 01.473.641c.064.313-.138.732-.54 1.569v.001l-.002.001zm-16.43 34.715l5.745-3.038m5.317-1.295L30.566 88.87c-.665.978-.998 1.467-1.34 1.557a.947.947 0 01-.848-.186c-.272-.226-.37-.808-.564-1.976l-.9-5.419a1.984 1.984 0 00-.08-.364.947.947 0 00-.112-.214 1.92 1.92 0 00-.248-.261l-3.98-3.805c-.855-.817-1.283-1.225-1.316-1.577a.947.947 0 01.324-.806c.267-.231.858-.232 2.04-.231l13.191.006c.93 0 1.395 0 1.65.194a.95.95 0 01.371.705c.017.319-.244.702-.766 1.47v.002h-.003zm52.116-40.427L93.5 35.49m3.197-.971l-4.15 6.902c-.373.618-.559.928-.764.994a.58.58 0 01-.523-.084c-.174-.128-.254-.48-.412-1.185l-.734-3.273a1.213 1.213 0 00-.06-.22.578.578 0 00-.077-.126 1.177 1.177 0 00-.16-.15l-2.557-2.184c-.549-.47-.823-.704-.856-.917a.58.58 0 01.17-.503c.155-.15.515-.17 1.236-.21l8.043-.447c.567-.032.85-.048 1.012.062a.58.58 0 01.25.416c.022.194-.124.437-.417.923v.001h-.001zM51.502 11.248L54.9 9.2m3.198-.972l-4.15 6.902c-.373.62-.559.929-.764.995a.577.577 0 01-.523-.084c-.175-.128-.254-.48-.412-1.185l-.734-3.273a1.223 1.223 0 00-.06-.22.576.576 0 00-.077-.126 1.177 1.177 0 00-.16-.151l-2.557-2.183c-.549-.47-.824-.704-.856-.917a.58.58 0 01.17-.503c.155-.15.515-.17 1.236-.21l8.043-.447c.566-.032.85-.048 1.011.062a.58.58 0 01.252.416c.02.194-.126.437-.418.923v.001h-.001zM30.456 34.164l3.573-1.728m3.273-.673l-4.767 6.492c-.428.582-.641.873-.852.92a.579.579 0 01-.513-.132c-.162-.144-.208-.501-.301-1.218l-.43-3.327a1.22 1.22 0 00-.04-.223.582.582 0 00-.065-.134 1.175 1.175 0 00-.145-.164l-2.346-2.41c-.503-.517-.755-.776-.768-.991a.58.58 0 01.215-.485c.168-.135.53-.122 1.25-.096l8.05.294c.568.02.85.03 1.002.154a.58.58 0 01.212.438c.003.195-.165.424-.5.88v.002h-.002zm-19.89 28.294l3.743-1.317m3.328-.302l-5.464 5.917c-.49.53-.734.796-.95.82a.579.579 0 01-.494-.19c-.145-.16-.151-.521-.163-1.244l-.055-3.354a1.222 1.222 0 00-.015-.227.581.581 0 00-.049-.14 1.183 1.183 0 00-.126-.18l-2.061-2.656c-.443-.57-.664-.856-.653-1.071a.58.58 0 01.269-.458c.182-.115.539-.062 1.253.045l7.966 1.193c.561.083.842.125.978.266a.58.58 0 01.162.459c-.02.194-.211.402-.596.819h0-.002zm48.792-24.64l4.358-2.66m4.106-1.272l-5.29 8.909c-.474.798-.711 1.198-.975 1.285a.744.744 0 01-.674-.105c-.224-.164-.329-.616-.538-1.521l-.967-4.206a1.562 1.562 0 00-.08-.282.745.745 0 00-.099-.162 1.517 1.517 0 00-.207-.193l-3.305-2.79c-.71-.6-1.065-.9-1.108-1.173a.745.745 0 01.215-.648c.198-.194.662-.223 1.59-.28l10.342-.633c.729-.045 1.093-.067 1.302.073a.744.744 0 01.326.534c.028.249-.158.563-.53 1.19v.001h-.002zM34.844 11.73l3.713-3.505m3.754-2.094l-3.332 9.81c-.299.88-.448 1.32-.688 1.46a.744.744 0 01-.68.037c-.255-.114-.45-.535-.842-1.378l-1.817-3.914a1.574 1.574 0 00-.136-.259.747.747 0 00-.13-.138 1.52 1.52 0 00-.242-.146l-3.811-2.046c-.819-.44-1.228-.66-1.327-.919a.744.744 0 01.076-.678c.154-.231.601-.355 1.497-.603l9.988-2.759c.704-.195 1.055-.292 1.289-.198a.745.745 0 01.43.455c.079.238-.038.583-.273 1.274v.001l-.002.001z" stroke="#fff" stroke-linecap="round" stroke-linejoin="round"/><path d="M60 49.333v-8.666h-8.667M73 49.333H47a4.333 4.333 0 00-4.333 4.333V71A4.333 4.333 0 0047 75.333h26A4.333 4.333 0 0077.333 71V53.666A4.333 4.333 0 0073 49.333zm-34.667 13h4.334m34.666 0h4.334M66.5 60.167V64.5m-13-4.334V64.5" stroke="#fff" stroke-width="4" stroke-linecap="round" stroke-linejoin="round"/><path opacity=".3" d="M71.791 94.56l2.29-3.241m2.54-2.173l-1.032 7.988c-.093.716-.139 1.074-.3 1.217a.578.578 0 01-.513.133c-.211-.048-.425-.338-.853-.92l-1.986-2.704a1.221 1.221 0 00-.143-.176.579.579 0 00-.12-.086 1.172 1.172 0 00-.208-.073l-3.218-.974c-.691-.21-1.037-.314-1.152-.496a.578.578 0 01-.046-.529c.081-.2.403-.363 1.047-.689l7.187-3.637c.506-.257.76-.385.952-.35a.58.58 0 01.397.282c.097.169.06.45-.012 1.012v.002zm25.303-11.507l1.783-3.545m2.188-2.526l.167 8.052c.015.722.023 1.083-.116 1.25a.579.579 0 01-.488.207c-.215-.016-.47-.272-.979-.784l-2.366-2.378a1.254 1.254 0 00-.168-.153.598.598 0 00-.132-.067 1.195 1.195 0 00-.216-.042l-3.327-.485c-.715-.104-1.072-.156-1.213-.319a.578.578 0 01-.124-.516c.05-.21.345-.419.933-.837l6.567-4.665c.462-.329.694-.493.889-.487a.577.577 0 01.435.22c.121.152.127.435.138 1.002l.001.001-.001.001zm-57.137 21.06l4.044-3.116m3.944-1.71l-4.294 9.43c-.385.845-.577 1.268-.83 1.383a.745.745 0 01-.681-.03c-.242-.14-.394-.578-.7-1.456l-1.417-4.076a1.566 1.566 0 00-.11-.27.744.744 0 00-.116-.152 1.513 1.513 0 00-.227-.169l-3.587-2.416c-.77-.519-1.156-.778-1.229-1.046a.745.745 0 01.144-.667c.175-.215.633-.294 1.55-.45l10.212-1.75c.72-.124 1.08-.185 1.303-.069a.746.746 0 01.382.496c.055.245-.096.576-.398 1.24v.002h-.002zm25.098-9.072l3.713-3.505m3.754-2.094l-3.332 9.81c-.299.88-.448 1.32-.688 1.46a.744.744 0 01-.68.037c-.255-.114-.45-.535-.842-1.378l-1.817-3.914a1.574 1.574 0 00-.136-.259.747.747 0 00-.13-.138 1.52 1.52 0 00-.243-.146l-3.81-2.046c-.819-.44-1.228-.66-1.327-.919a.744.744 0 01.076-.678c.154-.231.601-.355 1.497-.603l9.988-2.759c.704-.195 1.055-.292 1.289-.198a.745.745 0 01.43.455c.079.238-.038.583-.273 1.274v.001l-.002.001z" stroke="#fff" stroke-linecap="round" stroke-linejoin="round"/></g><defs><radialGradient id="paint0_radial_785_342" cx="0" cy="0" r="1" gradientUnits="userSpaceOnUse" gradientTransform="rotate(-123.944 81.412 27.569) scale(125.363 133.427)"><stop stop-color="#7359F5"/><stop offset="1" stop-color="#8B64DC"/></radialGradient><clipPath id="clip0_785_342"><rect x="16" y="16" width="88" height="88" rx="44" fill="#fff"/></clipPath></defs></svg>