<svg width="121" height="120" fill="none" xmlns="http://www.w3.org/2000/svg"><rect x="20.333" y="20" width="80" height="80" rx="8" fill="url(#paint0_linear_785_868)"/><g opacity=".5"><path fill-rule="evenodd" clip-rule="evenodd" d="M52.237 27.5h16.25l-1.434 21.027 17.886-11.792 8.097 14.038L73.846 60l19.19 9.227-8.097 14.038-17.886-11.792L68.488 92.5H52.237l1.38-21.029-17.889 11.794-8.097-14.038L46.874 60 27.63 50.773l8.097-14.038 17.889 11.794-1.38-21.029zm1.068 1l1.441 21.971-18.682-12.317-7.028 12.184L49.186 60l-20.15 9.662 7.028 12.184 18.682-12.317L53.305 91.5h14.112l-1.5-21.973 18.686 12.319 7.028-12.184L71.539 60l20.092-9.661-7.028-12.185-18.686 12.32 1.5-21.974H53.305z" fill="url(#paint1_linear_785_868)"/><path d="M29.036 50.338l7.028-12.184 18.682 12.317L53.305 28.5h14.112l-1.5 21.973 18.686-12.319 7.028 12.184L71.539 60l20.092 9.662-7.028 12.184-18.686-12.32 1.5 21.974H53.305l1.441-21.971-18.682 12.317-7.028-12.184L49.186 60l-20.15-9.662z" fill="url(#paint2_linear_785_868)"/></g><path d="M36.594 72c-1.71 0-3.183-.36-4.419-1.077-1.227-.726-2.177-1.744-2.847-3.054-.663-1.318-.995-2.862-.995-4.632 0-1.747.332-3.287.995-4.62.67-1.332 1.604-2.373 2.802-3.12 1.206-.748 2.614-1.122 4.227-1.122.979 0 1.928.159 2.847.477.92.319 1.744.819 2.475 1.5.73.68 1.307 1.566 1.73 2.654.421 1.081.632 2.395.632 3.943v1.177H30.243v-2.488H40.73c0-.873-.18-1.647-.542-2.321a4.059 4.059 0 00-1.526-1.61c-.648-.393-1.409-.589-2.283-.589-.949 0-1.778.23-2.486.689a4.65 4.65 0 00-1.627 1.776 5.057 5.057 0 00-.565 2.366v1.944c0 1.14.203 2.11.61 2.91.414.799.99 1.41 1.73 1.832.737.414 1.6.622 2.587.622a5.46 5.46 0 001.751-.267 3.786 3.786 0 001.368-.822c.384-.362.678-.81.881-1.343l3.198.566a5.665 5.665 0 01-1.378 2.432c-.656.689-1.48 1.226-2.475 1.61-.987.378-2.113.567-3.379.567zm11.196-.344v-17.06h3.266v2.71h.18a4.132 4.132 0 011.673-2.165c.806-.533 1.718-.8 2.735-.8a14.703 14.703 0 011.435.078v3.177a6.13 6.13 0 00-.723-.123 7.024 7.024 0 00-1.04-.077c-.799 0-1.51.166-2.136.5a3.75 3.75 0 00-1.469 1.365c-.361.578-.542 1.237-.542 1.977v10.418h-3.38zm12.213 0v-17.06h3.379v17.06h-3.38zm1.706-19.691a2.169 2.169 0 01-1.514-.578c-.414-.392-.622-.858-.622-1.399 0-.548.208-1.014.622-1.4A2.146 2.146 0 0161.709 48c.588 0 1.089.196 1.503.589.422.385.633.851.633 1.399 0 .54-.211 1.007-.633 1.4a2.129 2.129 0 01-1.503.577zm12.716 20.024c-1.401 0-2.652-.352-3.752-1.055-1.092-.711-1.951-1.722-2.576-3.032-.618-1.318-.927-2.899-.927-4.742 0-1.844.313-3.421.938-4.731.633-1.311 1.5-2.314 2.6-3.01 1.099-.696 2.346-1.044 3.74-1.044 1.077 0 1.943.178 2.599.533.663.348 1.175.755 1.537 1.222.369.466.655.877.858 1.232h.204v-8.451h3.379v22.745h-3.3V69h-.283a8.78 8.78 0 01-.881 1.244c-.377.467-.897.874-1.56 1.222s-1.521.522-2.576.522zm.746-2.832c.972 0 1.793-.252 2.463-.755.678-.511 1.19-1.218 1.537-2.122.354-.903.531-1.954.531-3.154 0-1.184-.173-2.22-.52-3.11-.346-.888-.855-1.58-1.525-2.076-.67-.496-1.5-.744-2.486-.744-1.017 0-1.865.259-2.543.777-.678.518-1.19 1.226-1.537 2.121-.339.896-.508 1.907-.508 3.032 0 1.14.173 2.166.52 3.077.346.91.859 1.632 1.537 2.165.685.526 1.529.789 2.53.789zm14.902 2.71a2.213 2.213 0 01-1.593-.644 2.132 2.132 0 01-.667-1.578c0-.607.222-1.125.667-1.554a2.194 2.194 0 011.593-.656c.618 0 1.15.219 1.594.656.444.43.666.947.666 1.555 0 .407-.105.78-.316 1.121-.203.333-.475.6-.814.8-.339.2-.715.3-1.13.3zm0-12.417a2.194 2.194 0 01-1.593-.655 2.119 2.119 0 01-.667-1.566c0-.607.222-1.125.667-1.555a2.194 2.194 0 011.593-.655c.618 0 1.15.218 1.594.655.444.43.666.948.666 1.555 0 .407-.105.781-.316 1.122-.203.333-.475.6-.814.8-.339.2-.715.3-1.13.3z" fill="#fff"/><defs><linearGradient id="paint0_linear_785_868" x1="60.333" y1="20" x2="60.333" y2="100" gradientUnits="userSpaceOnUse"><stop stop-color="#86CDF5"/><stop offset="1" stop-color="#4FB1E9"/></linearGradient><linearGradient id="paint1_linear_785_868" x1="60.333" y1="28" x2="60.333" y2="92" gradientUnits="userSpaceOnUse"><stop stop-color="#fff"/><stop offset="1" stop-color="#fff" stop-opacity="0"/></linearGradient><linearGradient id="paint2_linear_785_868" x1="60.333" y1="28" x2="60.333" y2="92" gradientUnits="userSpaceOnUse"><stop stop-color="#fff"/><stop offset="1" stop-color="#fff" stop-opacity="0"/></linearGradient></defs></svg>