<svg width="28" height="32" fill="none" xmlns="http://www.w3.org/2000/svg"><path fill-rule="evenodd" clip-rule="evenodd" d="M15.269.318l11.74 7.048c.677.418.961.986.991 1.65v13.969c-.036.663-.314 1.237-.99 1.65l-11.741 7.047a2.689 2.689 0 01-2.538 0L.991 24.634c-.677-.412-.961-.98-.991-1.65V9.016c.036-.663.314-1.237.99-1.65L12.731.319a2.689 2.689 0 012.538 0z" fill="#226EE0"/><path d="M28 14.321v2.116c-1.138.514-1.255 1.194-1.255 1.194-4.942-.442-7.085-1.298-7.085-1.298 1.514-1.415 4.706-2.067 8.34-2.012zm0-3.899v2.412c-1.974-.093-3.974.032-5.96.46a13.18 13.18 0 01-.08.017h-.003c-.854.183-3.378.722-4.431 2.06 0 0-1.29-.856-1.509-1.635-.493-1.799.721-3.338 2.011-3.626 3.316-.743 6.782-.444 9.972.312zM24.764 6.02l2.241 1.338c.68.418.965.985.995 1.648v.016c-4.759-1.166-10.04-1.345-15.037.857 0 0 .256-1.068-.37-1.558-1.043-.818-3.851-.231-3.851-.231 5.398-2.526 10.932-2.923 16.022-2.07z" fill="#fff"/><path fill-rule="evenodd" clip-rule="evenodd" d="M4.616 20.247c-.977 1.203-.949 2.52.55 3.175-.418-3.8 9.087-4.454 21.58-4.463 0 0-7.665-.222-10.918-3.107-3.52-3.126-.114-5.665-.114-5.665-1.717.413-11.573 6.367-10.966 8.512.238.433.484.904.295 1.135l-.427.413zm1.127-2.26c.285-.481.674-.616.75-.568.123.087.085.654 0 1.058-.057.299-.721.75-.949.808 0 0-.19-.644.2-1.298z" fill="#fff"/></svg>