<svg width="32" height="32" fill="none" xmlns="http://www.w3.org/2000/svg"><g clip-path="url(#clip0_257_7105)"><path d="M12.652.005l.972-.004h4.752l.973.004 1.219.014.577.01.558.014.537.018.517.022.499.028.48.033.46.04.444.044c2.32.261 3.91.821 5.11 2.021 1.2 1.2 1.76 2.79 2.022 5.111l.045.444.039.461.033.48.027.498.033.784.016.546.018.86.012 1.22.005 1.306-.001 4.417-.004.973-.014 1.22-.009.576-.015.558-.018.537-.022.518-.028.498-.033.48-.04.46-.044.444c-.261 2.32-.821 3.91-2.021 5.11-1.2 1.2-2.79 1.76-5.111 2.022l-.444.046-.461.038-.48.034-.498.026-.784.034-.546.015-.859.018-1.22.012-1.307.005h-4.417l-.973-.004-1.219-.014-.577-.009-.558-.015-.537-.018-.517-.021-.499-.028-.48-.034-.46-.04-.444-.044c-2.32-.261-3.91-.821-5.11-2.021-1.2-1.2-1.76-2.79-2.022-5.11l-.045-.445-.039-.461-.033-.48-.027-.497-.033-.784-.016-.547-.018-.859-.012-1.22L0 18.042l.001-4.418.004-.973.014-1.219.009-.577.015-.558.018-.537.022-.517.028-.499.033-.48.04-.46.044-.444c.261-2.32.821-3.91 2.021-5.11C3.45 1.05 5.04.49 7.36.227l.444-.045.461-.039.48-.033.498-.027.784-.033.546-.016.859-.018 1.22-.012zM9.053 9.733H5.4c.173 8.32 4.333 13.32 11.627 13.32h.413v-4.76c2.68.267 4.707 2.227 5.52 4.76h3.787c-1.04-3.786-3.774-5.88-5.48-6.68 1.706-.986 4.106-3.386 4.68-6.64h-3.44c-.747 2.64-2.96 5.04-5.067 5.267V9.733H14v9.227c-2.133-.533-4.827-3.12-4.947-9.227z" fill="#2787F5"/></g><defs><clipPath id="clip0_257_7105"><path fill="#fff" d="M0 0h32v32H0z"/></clipPath></defs></svg>