<svg width="216" height="40" viewBox="0 0 216 40" fill="none" xmlns="http://www.w3.org/2000/svg">
<path fill-rule="evenodd" clip-rule="evenodd" d="M18.8691 0.397871L33.3782 9.20706C34.2135 9.73008 34.5653 10.4399 34.6019 11.2693V28.7307C34.5579 29.5601 34.2135 30.2774 33.3782 30.7929L18.8691 39.6021C17.9018 40.1326 16.7001 40.1326 15.7328 39.6021L1.22374 30.7929C0.388374 30.2774 0.036639 29.5676 0 28.7307V11.2693C0.0439668 10.4399 0.388374 9.72261 1.22374 9.20706L15.7328 0.397871C16.7001 -0.132624 17.9018 -0.132624 18.8691 0.397871Z" fill="#226EE0"/>
<path d="M34.602 17.9012V20.5457C33.1957 21.1891 33.0516 22.0388 33.0516 22.0388C26.9444 21.4857 24.2952 20.4156 24.2952 20.4156C26.1664 18.6476 30.1113 17.8317 34.602 17.9012Z" fill="white"/>
<path d="M34.602 13.0268V16.0417C32.163 15.9262 29.6903 16.0822 27.2375 16.6163C27.2066 16.6231 27.1732 16.6303 27.1375 16.638L27.1343 16.6387C26.079 16.8667 22.9602 17.5406 21.6577 19.2133C21.6577 19.2133 20.0635 18.1433 19.7939 17.1694C19.1844 14.9211 20.6848 12.9974 22.279 12.6367C26.3762 11.7079 30.6601 12.0819 34.602 13.0268Z" fill="white"/>
<path d="M30.6026 7.52536L33.3724 9.19728C34.2117 9.71976 34.5651 10.4288 34.602 11.2573V11.277C28.7212 9.81991 22.1948 9.59641 16.0194 12.3481C16.0194 12.3481 16.3359 11.0136 15.5623 10.4004C14.2728 9.37841 10.8031 10.1118 10.8031 10.1118C17.4737 6.95467 24.313 6.45875 30.6026 7.52536Z" fill="white"/>
<path fill-rule="evenodd" clip-rule="evenodd" d="M5.704 25.3091C4.49663 26.812 4.53179 28.4591 6.38388 29.2767C5.86811 24.5276 17.6136 23.71 33.0516 23.698C33.0516 23.698 23.5802 23.4214 19.5595 19.8145C15.2106 15.907 19.4188 12.7329 19.4188 12.7329C17.2971 13.2499 5.1179 20.6922 5.86811 23.3733C6.16116 23.9144 6.46593 24.5035 6.23149 24.7921L5.704 25.3091ZM7.09737 22.4832C7.44903 21.882 7.92963 21.7137 8.0234 21.7738C8.17579 21.882 8.1289 22.5914 8.0234 23.0964C7.95307 23.4691 7.13254 24.0342 6.85121 24.1063C6.85121 24.1063 6.61677 23.3008 7.09737 22.4832Z" fill="white"/>
<path d="M60.459 13.0655H54.4292V28.7722H50.79V13.0655H44.7602V9.83887H60.459V13.0655Z" fill="#292E36"/>
<path d="M65.6245 29.0389C64.6682 29.0389 63.7828 28.8522 62.9682 28.4789C62.1713 28.1055 61.4718 27.59 60.8697 26.9322C60.2853 26.2744 59.8337 25.51 59.515 24.6389C59.1962 23.75 59.0368 22.7989 59.0368 21.7855C59.0368 20.7722 59.1962 19.83 59.515 18.9589C59.8337 18.0878 60.2676 17.3233 60.8166 16.6655C61.3832 15.99 62.0473 15.4744 62.8088 15.1189C63.5703 14.7455 64.3937 14.5589 65.2792 14.5589C66.324 14.5589 67.2537 14.8078 68.0683 15.3055C68.9006 15.8033 69.5381 16.4611 69.9808 17.2789V14.9855H73.5403V28.7722H69.9808V26.5055C69.5381 27.2878 68.9537 27.91 68.2277 28.3722C67.5016 28.8166 66.6339 29.0389 65.6245 29.0389ZM69.9808 20.3455C69.786 19.8122 69.5027 19.3411 69.1308 18.9322C68.7589 18.5055 68.3339 18.1766 67.8558 17.9455C67.3953 17.7144 66.9084 17.5989 66.3948 17.5989C65.8635 17.5989 65.3677 17.7144 64.9073 17.9455C64.4646 18.1766 64.075 18.4966 63.7385 18.9055C63.4197 19.3144 63.1718 19.7766 62.9947 20.2922C62.8176 20.79 62.7291 21.3144 62.7291 21.8655C62.7291 22.63 62.8885 23.3233 63.2072 23.9455C63.5437 24.5678 63.9953 25.0655 64.562 25.4389C65.1463 25.8122 65.8016 25.9989 66.5276 25.9989C67.0589 25.9989 67.537 25.9011 67.962 25.7055C68.4047 25.51 68.7943 25.2344 69.1308 24.8789C69.4673 24.5233 69.7506 24.1144 69.9808 23.6522V20.3455Z" fill="#292E36"/>
<path d="M85.0359 17.8922C83.9556 17.8922 82.9905 18.1055 82.1405 18.5322C81.2905 18.9411 80.6795 19.5366 80.3076 20.3189V28.7722H76.7482V14.7989H80.0154V17.7855C80.5113 16.8255 81.14 16.07 81.9014 15.5189C82.6629 14.9678 83.4687 14.6655 84.3187 14.6122C84.5135 14.6122 84.664 14.6122 84.7702 14.6122C84.8765 14.6122 84.965 14.6211 85.0359 14.6389V17.8922Z" fill="#292E36"/>
<path d="M92.3364 28.8522C91.4155 28.8522 90.5655 28.6744 89.7863 28.3189C89.0248 27.9455 88.3608 27.43 87.7941 26.7722C87.2451 26.1144 86.8201 25.3589 86.5191 24.5055C86.218 23.6522 86.0675 22.7455 86.0675 21.7855C86.0675 20.7722 86.2269 19.83 86.5456 18.9589C86.8644 18.0878 87.3071 17.3233 87.8738 16.6655C88.4582 15.99 89.1399 15.4744 89.9191 15.1189C90.716 14.7455 91.5926 14.5589 92.5489 14.5589C93.6291 14.5589 94.5765 14.8078 95.3911 15.3055C96.2057 15.7855 96.8787 16.4344 97.4099 17.2522V14.7989H100.518V28.1055C100.518 29.4922 100.181 30.6744 99.5084 31.6522C98.8532 32.6478 97.9412 33.4033 96.7724 33.9189C95.6036 34.4522 94.2755 34.7189 92.7879 34.7189C91.2827 34.7189 90.0077 34.4611 88.9629 33.9455C87.918 33.4478 87.0238 32.7366 86.28 31.8122L88.2191 29.9189C88.7504 30.5766 89.4144 31.0922 90.2113 31.4655C91.0259 31.8389 91.8848 32.0255 92.7879 32.0255C93.5494 32.0255 94.2401 31.8833 94.8599 31.5989C95.4974 31.3322 96.0021 30.9055 96.374 30.3189C96.7636 29.75 96.9584 29.0122 96.9584 28.1055V26.3455C96.4979 27.1455 95.8427 27.7678 94.9927 28.2122C94.1604 28.6389 93.2749 28.8522 92.3364 28.8522ZM93.5317 25.9989C93.9213 25.9989 94.2932 25.9366 94.6474 25.8122C95.0015 25.6878 95.3292 25.5189 95.6302 25.3055C95.9312 25.0922 96.1969 24.8433 96.4271 24.5589C96.6573 24.2566 96.8344 23.9544 96.9584 23.6522V20.3189C96.7459 19.7678 96.4448 19.2878 96.0552 18.8789C95.6833 18.47 95.2583 18.1589 94.7802 17.9455C94.3198 17.7144 93.8328 17.5989 93.3192 17.5989C92.7702 17.5989 92.2744 17.7144 91.8317 17.9455C91.389 18.1766 91.0082 18.5055 90.6895 18.9322C90.3707 19.3411 90.1228 19.8033 89.9457 20.3189C89.7863 20.8166 89.7066 21.3411 89.7066 21.8922C89.7066 22.4611 89.804 22.9944 89.9988 23.4922C90.1936 23.99 90.4593 24.4255 90.7957 24.7989C91.1499 25.1722 91.5572 25.4655 92.0176 25.6789C92.4958 25.8922 93.0005 25.9989 93.5317 25.9989Z" fill="#292E36"/>
<path d="M110.181 29.0389C109.066 29.0389 108.056 28.8522 107.153 28.4789C106.25 28.0878 105.48 27.5633 104.842 26.9055C104.204 26.23 103.709 25.4655 103.354 24.6122C103.018 23.7411 102.85 22.8255 102.85 21.8655C102.85 20.5322 103.142 19.3144 103.726 18.2122C104.328 17.11 105.178 16.23 106.276 15.5722C107.392 14.8966 108.702 14.5589 110.208 14.5589C111.731 14.5589 113.032 14.8966 114.113 15.5722C115.193 16.23 116.016 17.11 116.583 18.2122C117.167 19.2966 117.459 20.47 117.459 21.7322C117.459 21.9455 117.451 22.1678 117.433 22.3989C117.415 22.6122 117.397 22.79 117.38 22.9322H106.622C106.693 23.6433 106.896 24.2655 107.233 24.7989C107.587 25.3322 108.03 25.7411 108.561 26.0255C109.11 26.2922 109.694 26.4255 110.314 26.4255C111.022 26.4255 111.686 26.2566 112.306 25.9189C112.944 25.5633 113.378 25.1011 113.608 24.5322L116.663 25.3855C116.326 26.0966 115.839 26.7278 115.202 27.2789C114.582 27.83 113.847 28.2655 112.997 28.5855C112.147 28.8878 111.208 29.0389 110.181 29.0389ZM106.542 20.6655H113.82C113.749 19.9544 113.546 19.3411 113.209 18.8255C112.891 18.2922 112.466 17.8833 111.934 17.5989C111.403 17.2966 110.81 17.1455 110.155 17.1455C109.517 17.1455 108.933 17.2966 108.401 17.5989C107.888 17.8833 107.463 18.2922 107.126 18.8255C106.808 19.3411 106.613 19.9544 106.542 20.6655Z" fill="#292E36"/>
<path d="M127.839 28.0522C127.538 28.1766 127.175 28.3189 126.75 28.4789C126.325 28.6389 125.864 28.7633 125.369 28.8522C124.89 28.9589 124.404 29.0122 123.908 29.0122C123.252 29.0122 122.65 28.8966 122.101 28.6655C121.552 28.4344 121.11 28.07 120.773 27.5722C120.454 27.0566 120.295 26.39 120.295 25.5722V17.5455H118.462V14.7989H120.295V10.2655H123.855V14.7989H126.776V17.5455H123.855V24.3722C123.872 24.8522 124.005 25.1989 124.253 25.4122C124.501 25.6255 124.811 25.7322 125.183 25.7322C125.555 25.7322 125.918 25.67 126.272 25.5455C126.626 25.4211 126.909 25.3144 127.122 25.2255L127.839 28.0522Z" fill="#292E36"/>
<path d="M145.896 9.83887V28.7722H142.257V20.6922H133.704V28.7722H130.038V9.83887H133.704V17.4922H142.257V9.83887H145.896Z" fill="#292E36"/>
<path d="M158.942 28.7722V26.3722C158.605 26.9589 158.172 27.4566 157.64 27.8655C157.127 28.2566 156.551 28.55 155.914 28.7455C155.276 28.9411 154.621 29.0389 153.948 29.0389C153.116 29.0389 152.399 28.9144 151.796 28.6655C151.212 28.3989 150.734 28.0255 150.362 27.5455C150.008 27.0655 149.751 26.4878 149.592 25.8122C149.432 25.1189 149.353 24.3633 149.353 23.5455V14.7989H152.912V22.7722C152.912 23.3944 152.983 23.9544 153.125 24.4522C153.266 24.9322 153.514 25.3144 153.868 25.5989C154.223 25.8655 154.71 25.9989 155.329 25.9989C155.772 25.9989 156.215 25.9011 156.657 25.7055C157.1 25.51 157.508 25.2255 157.879 24.8522C158.251 24.4611 158.561 23.9989 158.809 23.4655V14.7989H162.369V28.7722H158.942Z" fill="#292E36"/>
<path d="M178.557 28.7722H174.997V20.9322C174.997 19.8122 174.802 18.9944 174.413 18.4789C174.023 17.9633 173.483 17.7055 172.792 17.7055C172.314 17.7055 171.827 17.83 171.332 18.0789C170.853 18.3278 170.42 18.6744 170.03 19.1189C169.64 19.5455 169.357 20.0433 169.18 20.6122V28.7722H165.62V14.7989H168.835V17.3855C169.189 16.7811 169.64 16.2744 170.189 15.8655C170.738 15.4389 171.367 15.1189 172.075 14.9055C172.801 14.6744 173.563 14.5589 174.36 14.5589C175.227 14.5589 175.936 14.7189 176.485 15.0389C177.051 15.3411 177.476 15.7589 177.76 16.2922C178.061 16.8078 178.264 17.3944 178.371 18.0522C178.495 18.71 178.557 19.3766 178.557 20.0522V28.7722Z" fill="#292E36"/>
<path d="M189.915 28.0522C189.614 28.1766 189.251 28.3189 188.826 28.4789C188.401 28.6389 187.94 28.7633 187.444 28.8522C186.966 28.9589 186.479 29.0122 185.983 29.0122C185.328 29.0122 184.726 28.8966 184.177 28.6655C183.628 28.4344 183.185 28.07 182.849 27.5722C182.53 27.0566 182.371 26.39 182.371 25.5722V17.5455H180.538V14.7989H182.371V10.2655H185.93V14.7989H188.852V17.5455H185.93V24.3722C185.948 24.8522 186.081 25.1989 186.329 25.4122C186.577 25.6255 186.887 25.7322 187.258 25.7322C187.63 25.7322 187.993 25.67 188.347 25.5455C188.702 25.4211 188.985 25.3144 189.197 25.2255L189.915 28.0522Z" fill="#292E36"/>
<path d="M198.042 29.0389C196.926 29.0389 195.917 28.8522 195.014 28.4789C194.11 28.0878 193.34 27.5633 192.703 26.9055C192.065 26.23 191.569 25.4655 191.215 24.6122C190.879 23.7411 190.71 22.8255 190.71 21.8655C190.71 20.5322 191.003 19.3144 191.587 18.2122C192.189 17.11 193.039 16.23 194.137 15.5722C195.253 14.8966 196.563 14.5589 198.068 14.5589C199.591 14.5589 200.893 14.8966 201.973 15.5722C203.053 16.23 203.877 17.11 204.443 18.2122C205.028 19.2966 205.32 20.47 205.32 21.7322C205.32 21.9455 205.311 22.1678 205.293 22.3989C205.276 22.6122 205.258 22.79 205.24 22.9322H194.482C194.553 23.6433 194.757 24.2655 195.093 24.7989C195.447 25.3322 195.89 25.7411 196.421 26.0255C196.97 26.2922 197.555 26.4255 198.175 26.4255C198.883 26.4255 199.547 26.2566 200.167 25.9189C200.804 25.5633 201.238 25.1011 201.468 24.5322L204.523 25.3855C204.187 26.0966 203.7 26.7278 203.062 27.2789C202.442 27.83 201.707 28.2655 200.857 28.5855C200.007 28.8878 199.069 29.0389 198.042 29.0389ZM194.403 20.6655H201.681C201.61 19.9544 201.406 19.3411 201.07 18.8255C200.751 18.2922 200.326 17.8833 199.795 17.5989C199.264 17.2966 198.67 17.1455 198.015 17.1455C197.378 17.1455 196.793 17.2966 196.262 17.5989C195.748 17.8833 195.323 18.2922 194.987 18.8255C194.668 19.3411 194.473 19.9544 194.403 20.6655Z" fill="#292E36"/>
<path d="M215.776 17.8922C214.696 17.8922 213.731 18.1055 212.881 18.5322C212.031 18.9411 211.42 19.5366 211.048 20.3189V28.7722H207.488V14.7989H210.756V17.7855C211.252 16.8255 211.88 16.07 212.642 15.5189C213.403 14.9678 214.209 14.6655 215.059 14.6122C215.254 14.6122 215.404 14.6122 215.511 14.6122C215.617 14.6122 215.705 14.6211 215.776 14.6389V17.8922Z" fill="#292E36"/>
</svg>
