<svg width="24" height="24" viewBox="0 0 24 24" fill="none" xmlns="http://www.w3.org/2000/svg">
<path d="M24 20.4879C24 22.4277 22.4356 24 20.5059 24H3.49414C1.56436 24 0 22.4277 0 20.4879V3.51206C0 1.57238 1.56436 0 3.49414 0H20.5059C22.4356 0 24 1.57238 24 3.51206V20.4879Z" fill="#F57321"/>
<path d="M23.8768 20.4005C23.8768 22.3203 22.3284 23.8765 20.4185 23.8765H3.5815C1.67156 23.8765 0.123291 22.3203 0.123291 20.4005V3.59899C0.123291 1.67926 1.67163 0.123047 3.5815 0.123047H20.4185C22.3284 0.123047 23.8768 1.67932 23.8768 3.59899V20.4005Z" fill="#F57321"/>
<path d="M11.9866 3.58691C9.60805 3.58691 7.67987 5.52504 7.67987 7.91577C7.67987 10.3066 9.60805 12.2448 11.9866 12.2448C14.3652 12.2448 16.2934 10.3066 16.2934 7.91577C16.2934 5.52504 14.3652 3.58691 11.9866 3.58691ZM11.9866 9.70535C11.0034 9.70535 10.2063 8.9041 10.2063 7.91583C10.2063 6.92756 11.0034 6.12638 11.9866 6.12638C12.9699 6.12638 13.767 6.92756 13.767 7.91583C13.767 8.9041 12.9699 9.70535 11.9866 9.70535Z" fill="white"/>
<path d="M13.5071 15.6891C15.2313 15.3361 16.2645 14.5154 16.3192 14.4713C16.8237 14.0647 16.9047 13.3239 16.5001 12.8167C16.0956 12.3096 15.3586 12.2281 14.854 12.6348C14.8433 12.6434 13.7413 13.4931 11.9282 13.4944C10.115 13.4931 8.98976 12.6434 8.97909 12.6348C8.47444 12.2281 7.7375 12.3096 7.33295 12.8167C6.92833 13.3239 7.00938 14.0647 7.5139 14.4713C7.56931 14.516 8.64517 15.3581 10.4177 15.7028L7.94736 18.2977C7.49843 18.7657 7.51193 19.5108 7.9775 19.9621C8.20474 20.1823 8.49762 20.2917 8.79025 20.2917C9.09706 20.2917 9.40356 20.1713 9.63332 19.9317L11.9282 17.4745L14.4549 19.9476C14.9127 20.407 15.654 20.4063 16.111 19.9463C16.5679 19.4863 16.5674 18.741 16.1097 18.2818L13.5071 15.6891Z" fill="white"/>
</svg>
