<svg width="24" height="24" viewBox="0 0 24 24" fill="none" xmlns="http://www.w3.org/2000/svg">
<path fill-rule="evenodd" clip-rule="evenodd" d="M17.2628 2.17717C17.591 1.84924 18.0359 1.66504 18.4998 1.66504C18.9638 1.66504 19.4087 1.84924 19.7368 2.17717L22.3228 4.76317C22.6508 5.09132 22.835 5.53625 22.835 6.00016C22.835 6.46408 22.6508 6.90901 22.3228 7.23717L19.8102 9.74981L14.7498 4.68936L17.2628 2.17717ZM13.6707 5.73167L3.67185 15.2762C3.45409 15.4839 3.29359 15.7443 3.20585 16.0322L1.53285 21.5322C1.49356 21.6621 1.49026 21.8002 1.52329 21.9318C1.55632 22.0634 1.62444 22.1836 1.7204 22.2796C1.81636 22.3756 1.93656 22.4437 2.06819 22.4767C2.19982 22.5098 2.33795 22.5064 2.46785 22.4672L7.99085 20.7872C8.25262 20.7074 8.49203 20.5673 8.68985 20.3782L18.7322 10.7931L13.6707 5.73167Z" fill="#5E81FC"/>
</svg>
