<svg width="216" height="216" viewBox="0 0 216 216" fill="none" xmlns="http://www.w3.org/2000/svg">
<g filter="url(#filter0_d_52_53402)">
<path fill-rule="evenodd" clip-rule="evenodd" d="M108 140C134.51 140 156 118.51 156 92C156 65.4903 134.51 44 108 44C81.4903 44 60 65.4903 60 92C60 118.51 81.4903 140 108 140ZM96.405 75.0001C96.6509 75.0021 96.8918 75.0673 97.1033 75.189L124.318 90.8377C124.526 90.9573 124.698 91.1274 124.818 91.3312C124.937 91.535 125 91.7655 125 92C125 92.2345 124.937 92.465 124.818 92.6688C124.698 92.8726 124.526 93.0427 124.318 93.1623L97.1033 108.811C96.8918 108.933 96.6509 108.998 96.405 109C96.1592 109.002 95.9172 108.941 95.7035 108.823C95.4899 108.705 95.3123 108.534 95.1887 108.328C95.0652 108.122 95 107.887 95 107.649V76.3513C95 76.1128 95.0652 75.8785 95.1887 75.6722C95.3123 75.466 95.4899 75.2952 95.7035 75.1771C95.9172 75.0591 96.1592 74.998 96.405 75.0001Z" fill="white"/>
</g>
<defs>
<filter id="filter0_d_52_53402" x="0" y="0" width="216" height="216" filterUnits="userSpaceOnUse" color-interpolation-filters="sRGB">
<feFlood flood-opacity="0" result="BackgroundImageFix"/>
<feColorMatrix in="SourceAlpha" type="matrix" values="0 0 0 0 0 0 0 0 0 0 0 0 0 0 0 0 0 0 127 0" result="hardAlpha"/>
<feOffset dy="16"/>
<feGaussianBlur stdDeviation="30"/>
<feComposite in2="hardAlpha" operator="out"/>
<feColorMatrix type="matrix" values="0 0 0 0 0.160784 0 0 0 0 0.180392 0 0 0 0 0.211765 0 0 0 0.5 0"/>
<feBlend mode="normal" in2="BackgroundImageFix" result="effect1_dropShadow_52_53402"/>
<feBlend mode="normal" in="SourceGraphic" in2="effect1_dropShadow_52_53402" result="shape"/>
</filter>
</defs>
</svg>
