<svg width="96" height="96" viewBox="0 0 96 96" fill="none" xmlns="http://www.w3.org/2000/svg">
<path fill-rule="evenodd" clip-rule="evenodd" d="M48 96C74.5097 96 96 74.5097 96 48C96 21.4903 74.5097 0 48 0C21.4903 0 0 21.4903 0 48C0 74.5097 21.4903 96 48 96ZM36.405 31.0001C36.6509 31.0021 36.8918 31.0673 37.1033 31.189L64.3179 46.8377C64.5257 46.9573 64.6979 47.1274 64.8175 47.3312C64.9371 47.535 65 47.7655 65 48C65 48.2345 64.9371 48.465 64.8175 48.6688C64.6979 48.8726 64.5257 49.0427 64.3179 49.1623L37.1033 64.811C36.8918 64.9327 36.6509 64.9979 36.405 64.9999C36.1592 65.002 35.9172 64.9409 35.7035 64.8229C35.4899 64.7048 35.3123 64.534 35.1887 64.3278C35.0652 64.1215 35 63.8872 35 63.6487V32.3513C35 32.1128 35.0652 31.8785 35.1887 31.6722C35.3123 31.466 35.4899 31.2952 35.7035 31.1771C35.9172 31.0591 36.1592 30.998 36.405 31.0001Z" fill="white"/>
</svg>
