<svg width="121" height="120" viewBox="0 0 121 120" fill="none" xmlns="http://www.w3.org/2000/svg">
<rect x="20.3333" y="20" width="80" height="80" rx="8" fill="url(#paint0_linear_785_868)"/>
<g opacity="0.5">
<path fill-rule="evenodd" clip-rule="evenodd" d="M52.2368 27.5H68.4877L67.0526 48.5269L84.9387 36.7349L93.0357 50.7726L73.8469 60L93.0357 69.2274L84.9387 83.2651L67.0526 71.4731L68.4877 92.5H52.2368L53.6169 71.4713L35.728 83.2651L27.6306 69.2269L46.8736 60L27.6306 50.7731L35.728 36.7349L53.6169 48.5287L52.2368 27.5ZM53.3046 28.5L54.7465 50.4713L36.0639 38.154L29.0361 50.338L49.1864 60L29.0361 69.662L36.0639 81.846L54.7465 69.5287L53.3046 91.5H67.4171L65.9174 69.5269L84.6028 81.846L91.6309 69.6615L71.5394 60L91.6309 50.3385L84.6028 38.154L65.9174 50.4731L67.4171 28.5H53.3046Z" fill="url(#paint1_linear_785_868)"/>
<path d="M29.0361 50.338L36.0639 38.154L54.7465 50.4713L53.3046 28.5H67.4171L65.9174 50.4731L84.6028 38.154L91.6309 50.3385L71.5394 60L91.6309 69.6615L84.6028 81.846L65.9174 69.5269L67.4171 91.5H53.3046L54.7465 69.5287L36.0639 81.846L29.0361 69.662L49.1864 60L29.0361 50.338Z" fill="url(#paint2_linear_785_868)"/>
</g>
<path d="M36.594 72C34.8838 72 33.411 71.6409 32.1755 70.9227C30.9475 70.1971 29.9983 69.1791 29.3278 67.8686C28.6648 66.5507 28.3333 65.0069 28.3333 63.2374C28.3333 61.4901 28.6648 59.95 29.3278 58.6173C29.9983 57.2846 30.9324 56.2443 32.1303 55.4965C33.3357 54.7487 34.7445 54.3748 36.3567 54.3748C37.336 54.3748 38.2853 54.534 39.2044 54.8524C40.1235 55.1708 40.9484 55.6705 41.6792 56.3517C42.4099 57.0329 42.9862 57.9176 43.4081 59.006C43.83 60.087 44.0409 61.4012 44.0409 62.9486V64.1259H30.2431V61.6381H40.7299C40.7299 60.7645 40.5491 59.9907 40.1875 59.317C39.8259 58.6358 39.3174 58.099 38.6619 57.7066C38.014 57.3142 37.2532 57.118 36.3793 57.118C35.43 57.118 34.6013 57.3475 33.8932 57.8066C33.1925 58.2582 32.6501 58.8505 32.2659 59.5835C31.8892 60.3091 31.7009 61.0976 31.7009 61.9491V63.8926C31.7009 65.0329 31.9043 66.0028 32.3111 66.8024C32.7254 67.602 33.3018 68.2129 34.0401 68.6349C34.7784 69.0495 35.641 69.2568 36.6279 69.2568C37.2682 69.2568 37.8521 69.168 38.3794 68.9903C38.9068 68.8052 39.3626 68.5312 39.7468 68.1684C40.131 67.8056 40.4248 67.3577 40.6282 66.8246L43.8262 67.391C43.5701 68.3165 43.1105 69.1273 42.4476 69.8232C41.7922 70.5118 40.9672 71.0486 39.9728 71.4336C38.9859 71.8112 37.8596 72 36.594 72Z" fill="white"/>
<path d="M47.7899 71.6557V54.5969H51.0557V57.3068H51.2365C51.5529 56.3887 52.1104 55.6668 52.909 55.1411C53.7151 54.6081 54.6266 54.3415 55.6437 54.3415C55.8546 54.3415 56.1032 54.3489 56.3895 54.3637C56.6833 54.3785 56.9131 54.397 57.0788 54.4193V57.5956C56.9432 57.5585 56.7021 57.5178 56.3556 57.4734C56.009 57.4216 55.6625 57.3956 55.316 57.3956C54.5174 57.3956 53.8055 57.5622 53.1802 57.8954C52.5624 58.2212 52.0727 58.6765 51.7111 59.2615C51.3495 59.839 51.1687 60.4979 51.1687 61.2383V71.6557H47.7899Z" fill="white"/>
<path d="M60.0028 71.6557V54.5969H63.3816V71.6557H60.0028ZM61.7092 51.9648C61.1215 51.9648 60.6168 51.7723 60.1949 51.3873C59.7806 50.9949 59.5734 50.5285 59.5734 49.988C59.5734 49.4401 59.7806 48.9736 60.1949 48.5886C60.6168 48.1962 61.1215 48 61.7092 48C62.2968 48 62.7978 48.1962 63.2121 48.5886C63.634 48.9736 63.845 49.4401 63.845 49.988C63.845 50.5285 63.634 50.9949 63.2121 51.3873C62.7978 51.7723 62.2968 51.9648 61.7092 51.9648Z" fill="white"/>
<path d="M74.425 71.9889C73.0237 71.9889 71.7731 71.6372 70.6732 70.9338C69.5809 70.223 68.722 69.2124 68.0967 67.9019C67.479 66.584 67.1701 65.0032 67.1701 63.1596C67.1701 61.3161 67.4827 59.739 68.108 58.4285C68.7409 57.118 69.6072 56.1148 70.7071 55.4188C71.807 54.7228 73.0539 54.3748 74.4476 54.3748C75.5249 54.3748 76.3913 54.5525 77.0467 54.9079C77.7096 55.2559 78.2219 55.6631 78.5835 56.1296C78.9527 56.596 79.239 57.0069 79.4424 57.3623H79.6458V48.9107H83.0246V71.6557H79.7249V69.0014H79.4424C79.239 69.3642 78.9452 69.7788 78.5609 70.2453C78.1843 70.7117 77.6644 71.1189 77.0015 71.4669C76.3385 71.8149 75.4797 71.9889 74.425 71.9889ZM75.1708 69.1569C76.1427 69.1569 76.9638 68.9051 77.6343 68.4017C78.3123 67.8908 78.8246 67.1837 79.1712 66.2804C79.5252 65.3771 79.7023 64.3258 79.7023 63.1263C79.7023 61.9417 79.529 60.9051 79.1825 60.0167C78.8359 59.1282 78.3274 58.4359 77.6569 57.9398C76.9864 57.4438 76.1577 57.1957 75.1708 57.1957C74.1538 57.1957 73.3062 57.4549 72.6282 57.9732C71.9502 58.4914 71.4379 59.1985 71.0914 60.0944C70.7523 60.9903 70.5828 62.0009 70.5828 63.1263C70.5828 64.2665 70.7561 65.292 71.1027 66.2027C71.4492 67.1134 71.9615 67.8353 72.6395 68.3683C73.3251 68.894 74.1688 69.1569 75.1708 69.1569Z" fill="white"/>
<path d="M90.0733 71.8667C89.4555 71.8667 88.9244 71.652 88.4799 71.2226C88.0354 70.7857 87.8132 70.2601 87.8132 69.6455C87.8132 69.0384 88.0354 68.5201 88.4799 68.0907C88.9244 67.6539 89.4555 67.4354 90.0733 67.4354C90.691 67.4354 91.2221 67.6539 91.6666 68.0907C92.1111 68.5201 92.3333 69.0384 92.3333 69.6455C92.3333 70.0528 92.2279 70.4267 92.0169 70.7672C91.8135 71.1004 91.5423 71.367 91.2033 71.5669C90.8643 71.7668 90.4876 71.8667 90.0733 71.8667ZM90.0733 59.4503C89.4555 59.4503 88.9244 59.2318 88.4799 58.795C88.0354 58.3582 87.8132 57.8362 87.8132 57.2291C87.8132 56.6219 88.0354 56.1037 88.4799 55.6742C88.9244 55.2374 89.4555 55.019 90.0733 55.019C90.691 55.019 91.2221 55.2374 91.6666 55.6742C92.1111 56.1037 92.3333 56.6219 92.3333 57.2291C92.3333 57.6363 92.2279 58.0102 92.0169 58.3508C91.8135 58.6839 91.5423 58.9505 91.2033 59.1504C90.8643 59.3503 90.4876 59.4503 90.0733 59.4503Z" fill="white"/>
<defs>
<linearGradient id="paint0_linear_785_868" x1="60.3333" y1="20" x2="60.3333" y2="100" gradientUnits="userSpaceOnUse">
<stop stop-color="#86CDF5"/>
<stop offset="1" stop-color="#4FB1E9"/>
</linearGradient>
<linearGradient id="paint1_linear_785_868" x1="60.3333" y1="28" x2="60.3333" y2="92" gradientUnits="userSpaceOnUse">
<stop stop-color="white"/>
<stop offset="1" stop-color="white" stop-opacity="0"/>
</linearGradient>
<linearGradient id="paint2_linear_785_868" x1="60.3333" y1="28" x2="60.3333" y2="92" gradientUnits="userSpaceOnUse">
<stop stop-color="white"/>
<stop offset="1" stop-color="white" stop-opacity="0"/>
</linearGradient>
</defs>
</svg>
