<svg width="120" height="120" viewBox="0 0 120 120" fill="none" xmlns="http://www.w3.org/2000/svg">
<g clip-path="url(#clip0_785_342)">
<rect x="16.0001" y="16" width="88" height="88" rx="44" fill="url(#paint0_radial_785_342)"/>
<path opacity="0.3" d="M90.7454 56.9106L95.6365 52.6314M100.512 50.1473L95.8034 62.4675C95.381 63.5721 95.1702 64.1245 94.8578 64.2909C94.7248 64.3622 94.5766 64.4008 94.4257 64.4033C94.2748 64.4058 94.1254 64.3721 93.9901 64.3052C93.6727 64.1482 93.4439 63.6035 92.9863 62.5124L90.8628 57.4459C90.8197 57.3292 90.7657 57.2168 90.7017 57.1101C90.6568 57.0428 90.6034 56.9814 90.5428 56.9275C90.4487 56.8527 90.3478 56.7867 90.2414 56.7307L85.4918 53.9448C84.472 53.3464 83.9617 53.0472 83.8481 52.7127C83.7997 52.5696 83.7861 52.4169 83.8087 52.2675C83.8312 52.1181 83.8891 51.9762 83.9776 51.8537C84.1839 51.5671 84.7595 51.4307 85.9105 51.1586L98.7482 48.1279C99.653 47.9136 100.105 47.8069 100.397 47.9376C100.523 47.9935 100.635 48.0761 100.726 48.1796C100.816 48.2832 100.883 48.4051 100.922 48.5371C101.012 48.8435 100.846 49.2772 100.514 50.1446L100.514 50.1465L100.512 50.1473Z" stroke="white" stroke-linecap="round" stroke-linejoin="round"/>
<path opacity="0.3" d="M50.9275 26.305L56.6568 23.2376M61.9669 21.9157L54.6037 32.8584C53.9432 33.8395 53.6134 34.3302 53.2716 34.422C53.1259 34.4615 52.9729 34.4657 52.8253 34.4341C52.6777 34.4025 52.5397 34.3361 52.4229 34.2405C52.1491 34.0159 52.0488 33.4338 51.8488 32.2676L50.9212 26.853C50.9055 26.7296 50.8783 26.6079 50.8399 26.4896C50.8113 26.4138 50.7731 26.3419 50.7263 26.2758C50.6514 26.1817 50.5679 26.0947 50.4769 26.0161L46.477 22.2319C45.6182 21.4192 45.1884 21.0127 45.1531 20.6612C45.1381 20.5109 45.1594 20.3591 45.215 20.2186C45.2706 20.0781 45.359 19.9529 45.4728 19.8535C45.7384 19.6207 46.3299 19.6174 47.5126 19.6117L60.703 19.5508C61.6328 19.5459 62.0971 19.5437 62.3527 19.737C62.4626 19.8197 62.5531 19.9254 62.6181 20.0467C62.683 20.168 62.7208 20.3019 62.7287 20.4392C62.7472 20.7579 62.488 21.1431 61.9696 21.9136L61.969 21.9154L61.9669 21.9157Z" stroke="white" stroke-linecap="round" stroke-linejoin="round"/>
<path opacity="0.3" d="M33.0582 53.5114L38.2875 49.6529M43.3527 47.582L37.6376 59.4689C37.1249 60.5347 36.869 61.0676 36.5439 61.2075C36.4054 61.2676 36.2546 61.2937 36.104 61.2836C35.9533 61.2736 35.8073 61.2277 35.678 61.1498C35.3747 60.9669 35.1919 60.4052 34.8265 59.2799L33.1307 54.0546C33.0974 53.9347 33.053 53.8182 32.9981 53.7066C32.9589 53.6357 32.9108 53.5701 32.8549 53.5115C32.7673 53.429 32.6722 53.355 32.5708 53.2902L28.0688 50.1198C27.1022 49.4389 26.6185 49.0984 26.533 48.7556C26.4967 48.6089 26.4959 48.4557 26.5307 48.3086C26.5656 48.1616 26.6351 48.025 26.7334 47.9103C26.9628 47.6418 27.5477 47.5536 28.7173 47.378L41.7622 45.4232C42.6817 45.2847 43.1409 45.2159 43.4216 45.3704C43.5422 45.4366 43.647 45.5281 43.7287 45.6388C43.8103 45.7495 43.8669 45.8766 43.8946 46.0114C43.9587 46.3241 43.7575 46.7426 43.355 47.5795L43.3547 47.5814L43.3527 47.582Z" stroke="white" stroke-linecap="round" stroke-linejoin="round"/>
<path opacity="0.3" d="M26.9234 82.2972L32.6683 79.259M37.9851 77.9643L30.5661 88.8693C29.9006 89.847 29.5683 90.336 29.2261 90.426C29.0802 90.4648 28.9271 90.4682 28.7797 90.4358C28.6322 90.4035 28.4946 90.3364 28.3783 90.2402C28.1056 90.0142 28.0083 89.4315 27.8143 88.2644L26.9143 82.8451C26.8993 82.7216 26.8727 82.5998 26.8349 82.4813C26.8067 82.4053 26.7689 82.3333 26.7224 82.267C26.648 82.1724 26.565 82.085 26.4743 82.006L22.4938 78.2014C21.6392 77.3843 21.2114 76.9757 21.1779 76.624C21.1637 76.4735 21.1857 76.3219 21.2421 76.1816C21.2984 76.0414 21.3874 75.9167 21.5017 75.8178C21.7685 75.5865 22.36 75.5862 23.5427 75.5865L36.7333 75.593C37.6631 75.5928 38.1275 75.593 38.3821 75.7875C38.4915 75.8709 38.5815 75.977 38.6458 76.0986C38.7101 76.2202 38.7472 76.3544 38.7545 76.4917C38.7714 76.8105 38.5102 77.1944 37.9878 77.9621L37.9872 77.964L37.9851 77.9643Z" stroke="white" stroke-linecap="round" stroke-linejoin="round"/>
<path opacity="0.3" d="M90.101 37.5373L93.4996 35.4886M96.6969 34.5175L92.5465 41.4196C92.1742 42.0384 91.9884 42.3479 91.7828 42.4145C91.6951 42.4431 91.6019 42.4504 91.5109 42.4358C91.4199 42.4211 91.3338 42.3849 91.2596 42.3302C91.0856 42.2018 91.0063 41.8498 90.8482 41.1449L90.1142 37.8717C90.1008 37.7969 90.0804 37.7235 90.0533 37.6526C90.0335 37.6072 90.008 37.5646 89.9774 37.5258C89.9288 37.4707 89.8752 37.4202 89.8172 37.3751L87.2603 35.1916C86.7114 34.7227 86.4366 34.4882 86.4041 34.2749C86.3904 34.1837 86.3986 34.0905 86.4281 34.0031C86.4577 33.9156 86.5077 33.8366 86.574 33.7724C86.7287 33.6222 87.0894 33.6018 87.8104 33.5616L95.8526 33.1146C96.4195 33.0826 96.7026 33.0669 96.8645 33.1768C96.934 33.2239 96.9925 33.2855 97.0359 33.3574C97.0792 33.4294 97.1064 33.5099 97.1156 33.5934C97.1368 33.7871 96.9907 34.0301 96.6984 34.5161L96.6981 34.5172L96.6969 34.5175Z" stroke="white" stroke-linecap="round" stroke-linejoin="round"/>
<path opacity="0.3" d="M51.5019 11.2482L54.9005 9.19954M58.0978 8.22842L53.9474 15.1305C53.5751 15.7494 53.3892 16.0589 53.1836 16.1254C53.096 16.1541 53.0028 16.1614 52.9118 16.1467C52.8208 16.132 52.7346 16.0958 52.6605 16.0411C52.4865 15.9127 52.4072 15.5608 52.249 14.8558L51.5151 11.5826C51.5016 11.5078 51.4813 11.4345 51.4542 11.3635C51.4344 11.3182 51.4089 11.2755 51.3782 11.2367C51.3297 11.1816 51.2761 11.1312 51.2181 11.086L48.6612 8.90258C48.1122 8.43367 47.8375 8.19914 47.805 7.98588C47.7912 7.89464 47.7995 7.80142 47.829 7.714C47.8586 7.62658 47.9086 7.54749 47.9749 7.48332C48.1296 7.33315 48.4902 7.31275 49.2113 7.2725L57.2535 6.8255C57.8204 6.79357 58.1035 6.77782 58.2653 6.88773C58.3349 6.9348 58.3934 6.99644 58.4368 7.06838C58.4801 7.14031 58.5073 7.22082 58.5165 7.30432C58.5376 7.49808 58.3915 7.74106 58.0993 8.22701L58.099 8.22814L58.0978 8.22842Z" stroke="white" stroke-linecap="round" stroke-linejoin="round"/>
<path opacity="0.3" d="M30.4565 34.1642L34.029 32.4364M37.3019 31.7632L32.535 38.2547C32.1074 38.8368 31.8939 39.1279 31.683 39.1752C31.5932 39.1957 31.4997 39.1944 31.4104 39.1715C31.3211 39.1485 31.2387 39.1045 31.1698 39.0432C31.0084 38.8994 30.9618 38.5417 30.869 37.8251L30.4389 34.4983C30.4324 34.4226 30.4189 34.3477 30.3985 34.2746C30.3829 34.2276 30.3614 34.1828 30.3345 34.1413C30.2912 34.082 30.2424 34.0268 30.1888 33.9766L27.8434 31.5674C27.3398 31.0501 27.0878 30.7913 27.075 30.5759C27.0697 30.4838 27.0864 30.3918 27.1239 30.3074C27.1614 30.2231 27.2184 30.1489 27.2904 30.0911C27.4582 29.9558 27.8192 29.9686 28.5409 29.9948L36.5901 30.2886C37.1576 30.3089 37.4409 30.3192 37.592 30.4435C37.6569 30.4968 37.7095 30.5636 37.7461 30.6392C37.7827 30.7148 37.8024 30.7975 37.8038 30.8814C37.8071 31.0763 37.6393 31.3048 37.3036 31.7619L37.3032 31.763L37.3019 31.7632Z" stroke="white" stroke-linecap="round" stroke-linejoin="round"/>
<path opacity="0.3" d="M17.4119 60.0572L21.1553 58.7403M24.4831 58.4377L19.0193 64.3547C18.5293 64.8852 18.2845 65.1506 18.0697 65.1741C17.9781 65.1844 17.8853 65.1726 17.7992 65.1398C17.713 65.107 17.636 65.0541 17.5745 64.9854C17.4301 64.8244 17.4239 64.4637 17.4119 63.7413L17.357 60.3873C17.359 60.3113 17.3539 60.2354 17.3418 60.1604C17.3316 60.112 17.3153 60.0651 17.2932 60.0208C17.2568 59.957 17.2145 59.8968 17.1669 59.8408L15.1059 57.1842C14.6634 56.6137 14.4419 56.3284 14.4534 56.1129C14.4584 56.0208 14.4854 55.9312 14.532 55.8516C14.5787 55.772 14.6437 55.7047 14.7216 55.6553C14.9036 55.5396 15.2609 55.5928 15.9751 55.6996L23.9408 56.8927C24.5024 56.9764 24.7828 57.0184 24.9191 57.1588C24.9776 57.219 25.0224 57.2912 25.0503 57.3705C25.0782 57.4497 25.0885 57.5341 25.0805 57.6177C25.0619 57.8117 24.8696 58.02 24.4849 58.4366L24.4844 58.4377L24.4831 58.4377Z" stroke="white" stroke-linecap="round" stroke-linejoin="round"/>
<path opacity="0.3" d="M73.2753 33.7979L77.6327 31.138M81.7388 29.8657L76.4492 38.7746C75.9748 39.5734 75.7379 39.9729 75.4738 40.06C75.3613 40.0975 75.2415 40.1075 75.1243 40.0893C75.0072 40.0711 74.896 40.0252 74.8002 39.9553C74.5755 39.7913 74.471 39.3392 74.2624 38.4335L73.2947 34.2279C73.2769 34.1318 73.2502 34.0376 73.2148 33.9465C73.189 33.8883 73.1559 33.8337 73.1162 33.7839C73.0533 33.7134 72.984 33.6489 72.9091 33.5913L69.6041 30.8008C68.8945 30.2015 68.5394 29.9018 68.4961 29.6277C68.4777 29.5104 68.4876 29.3904 68.525 29.2777C68.5624 29.1651 68.6262 29.0629 68.711 28.9799C68.909 28.7856 69.3728 28.7568 70.3001 28.6998L80.6426 28.067C81.3716 28.0218 81.7357 27.9995 81.9447 28.1398C82.0346 28.1998 82.1103 28.2787 82.1666 28.3709C82.2229 28.4632 82.2584 28.5665 82.2708 28.6739C82.2994 28.923 82.1132 29.2366 81.7408 29.8639L81.7404 29.8653L81.7388 29.8657Z" stroke="white" stroke-linecap="round" stroke-linejoin="round"/>
<path opacity="0.3" d="M34.8445 11.7293L38.5573 8.22542M42.3113 6.13118L38.9794 15.9417C38.6804 16.8214 38.5313 17.2612 38.291 17.4011C38.1887 17.461 38.0735 17.4957 37.9551 17.5021C37.8367 17.5085 37.7185 17.4865 37.6103 17.438C37.3565 17.3241 37.1607 16.9034 36.7693 16.0604L34.9524 12.146C34.9151 12.0557 34.8695 11.9691 34.8161 11.8872C34.7788 11.8356 34.735 11.7891 34.6859 11.7486C34.6098 11.6926 34.5286 11.6438 34.4435 11.6029L30.6327 9.55657C29.8144 9.11706 29.405 8.89729 29.3059 8.63807C29.2636 8.52713 29.2485 8.4077 29.2618 8.28973C29.2751 8.17176 29.3163 8.05868 29.3822 7.95989C29.5357 7.72884 29.9834 7.60468 30.8789 7.3571L40.8667 4.59819C41.5706 4.40319 41.9222 4.30605 42.1557 4.4C42.2561 4.44017 42.3464 4.50168 42.4206 4.58026C42.4948 4.65885 42.5509 4.75262 42.5852 4.85509C42.6648 5.09288 42.5475 5.43825 42.3129 6.12899L42.3128 6.13048L42.3113 6.13118Z" stroke="white" stroke-linecap="round" stroke-linejoin="round"/>
<path d="M60.0001 49.3332V40.6665H51.3334" stroke="white" stroke-width="4" stroke-linecap="round" stroke-linejoin="round"/>
<path d="M73.0001 49.333H47.0001C44.6068 49.333 42.6667 51.2731 42.6667 53.6663V70.9997C42.6667 73.3929 44.6068 75.333 47.0001 75.333H73.0001C75.3933 75.333 77.3334 73.3929 77.3334 70.9997V53.6663C77.3334 51.2731 75.3933 49.333 73.0001 49.333Z" stroke="white" stroke-width="4" stroke-linecap="round" stroke-linejoin="round"/>
<path d="M38.3334 62.3332H42.6667M77.3334 62.3332H81.6667M66.5001 60.1665V64.4998M53.5001 60.1665V64.4998" stroke="white" stroke-width="4" stroke-linecap="round" stroke-linejoin="round"/>
<path opacity="0.3" d="M71.791 94.5592L74.0817 91.3187M76.6204 89.1461L75.5891 97.1336C75.4965 97.8499 75.4504 98.2079 75.2888 98.3514C75.2201 98.4128 75.1377 98.4569 75.0484 98.48C74.9592 98.5031 74.8657 98.5045 74.7758 98.4842C74.5649 98.4364 74.3511 98.1458 73.9233 97.5636L71.9373 94.8602C71.895 94.7971 71.8469 94.7381 71.7936 94.6839C71.7573 94.6503 71.7168 94.6216 71.6732 94.5983C71.6066 94.5673 71.5372 94.5426 71.466 94.5246L68.2478 93.5509C67.5568 93.3417 67.211 93.2372 67.0957 93.0548C67.0464 92.9768 67.0165 92.8881 67.0085 92.7962C67.0005 92.7043 67.0146 92.6118 67.0496 92.5264C67.131 92.3267 67.4531 92.1633 68.0974 91.837L75.284 88.1999C75.7905 87.9432 76.0434 87.8151 76.2358 87.8508C76.3184 87.866 76.3967 87.899 76.4653 87.9475C76.5339 87.996 76.5911 88.0588 76.633 88.1316C76.7302 88.3006 76.6939 88.5818 76.6213 89.1442L76.6215 89.1453L76.6204 89.1461Z" stroke="white" stroke-linecap="round" stroke-linejoin="round"/>
<path opacity="0.3" d="M101.924 77.6389L103.707 74.094M105.895 71.5682L106.062 79.6203C106.077 80.3424 106.085 80.7033 105.946 80.8692C105.887 80.9402 105.812 80.996 105.727 81.0321C105.643 81.0682 105.55 81.0835 105.458 81.0767C105.243 81.0608 104.988 80.8053 104.479 80.2931L102.113 77.9148C102.062 77.8587 102.005 77.8075 101.945 77.7618C101.904 77.734 101.859 77.7116 101.813 77.695C101.742 77.6743 101.67 77.6602 101.597 77.6529L98.2698 77.1683C97.5554 77.0641 97.1979 77.0121 97.0568 76.849C96.9965 76.7791 96.9537 76.6959 96.9322 76.6062C96.9106 76.5165 96.9107 76.4229 96.9326 76.3332C96.9835 76.1237 97.2778 75.9142 97.8664 75.4958L104.433 70.8312C104.895 70.502 105.127 70.3378 105.322 70.3445C105.406 70.3473 105.488 70.3682 105.563 70.406C105.638 70.4438 105.704 70.4974 105.757 70.5632C105.878 70.7158 105.884 70.9993 105.895 71.5662L105.896 71.5673L105.895 71.5682Z" stroke="white" stroke-linecap="round" stroke-linejoin="round"/>
<path opacity="0.3" d="M48.7579 92.628L52.8016 89.5118M56.7458 87.8024L52.4521 97.2318C52.0669 98.0772 51.8746 98.5 51.6216 98.6152C51.5138 98.6646 51.3958 98.6876 51.2773 98.6822C51.1588 98.6768 51.0434 98.6431 50.9406 98.5841C50.6994 98.4454 50.5466 98.0072 50.2412 97.1294L48.8237 93.0534C48.7956 92.9598 48.7588 92.869 48.7138 92.7823C48.6819 92.7272 48.643 92.6765 48.5982 92.6313C48.528 92.568 48.4521 92.5114 48.3714 92.4623L44.7837 90.046C44.0134 89.5271 43.6279 89.2676 43.5552 88.9998C43.5242 88.8852 43.5211 88.7649 43.546 88.6488C43.571 88.5327 43.6233 88.4243 43.6987 88.3326C43.8745 88.118 44.3324 88.0391 45.2481 87.8821L55.4612 86.133C56.1811 86.0092 56.5406 85.9476 56.7636 86.0643C56.8594 86.1143 56.9432 86.1845 57.0092 86.2701C57.0751 86.3557 57.1217 86.4546 57.1456 86.56C57.201 86.8045 57.0499 87.1365 56.7475 87.8004L56.7473 87.8019L56.7458 87.8024Z" stroke="white" stroke-linecap="round" stroke-linejoin="round"/>
<path opacity="0.3" d="M81.8445 78.7293L85.5573 75.2254M89.3113 73.1312L85.9794 82.9417C85.6804 83.8214 85.5313 84.2612 85.291 84.4011C85.1887 84.461 85.0735 84.4957 84.9551 84.5021C84.8367 84.5085 84.7185 84.4865 84.6103 84.438C84.3565 84.3241 84.1607 83.9034 83.7693 83.0604L81.9524 79.146C81.9151 79.0557 81.8695 78.9691 81.8161 78.8872C81.7788 78.8356 81.735 78.7891 81.6859 78.7486C81.6098 78.6926 81.5286 78.6438 81.4435 78.6029L77.6327 76.5566C76.8144 76.1171 76.405 75.8973 76.3059 75.6381C76.2636 75.5271 76.2485 75.4077 76.2618 75.2897C76.2751 75.1718 76.3163 75.0587 76.3822 74.9599C76.5357 74.7288 76.9834 74.6047 77.8789 74.3571L87.8667 71.5982C88.5706 71.4032 88.9222 71.3061 89.1557 71.4C89.2561 71.4402 89.3464 71.5017 89.4206 71.5803C89.4948 71.6588 89.5509 71.7526 89.5852 71.8551C89.6648 72.0929 89.5475 72.4383 89.3129 73.129L89.3128 73.1305L89.3113 73.1312Z" stroke="white" stroke-linecap="round" stroke-linejoin="round"/>
</g>
<defs>
<radialGradient id="paint0_radial_785_342" cx="0" cy="0" r="1" gradientUnits="userSpaceOnUse" gradientTransform="translate(104 110.5) rotate(-123.944) scale(125.363 133.427)">
<stop stop-color="#7359F5"/>
<stop offset="1" stop-color="#8B64DC"/>
</radialGradient>
<clipPath id="clip0_785_342">
<rect x="16.0001" y="16" width="88" height="88" rx="44" fill="white"/>
</clipPath>
</defs>
</svg>
