<svg width="28" height="32" viewBox="0 0 28 32" fill="none" xmlns="http://www.w3.org/2000/svg">
<path fill-rule="evenodd" clip-rule="evenodd" d="M15.2689 0.318296L27.0097 7.36565C27.6857 7.78407 27.9703 8.35192 28 9.01541V22.9846C27.9644 23.6481 27.6857 24.2219 27.0097 24.6344L15.2689 31.6817C14.4862 32.1061 13.5137 32.1061 12.731 31.6817L0.990257 24.6344C0.314273 24.2219 0.0296484 23.6541 0 22.9846V9.01541C0.0355781 8.35192 0.314273 7.77809 0.990257 7.36565L12.731 0.318296C13.5137 -0.106099 14.4862 -0.106099 15.2689 0.318296Z" fill="#226EE0"/>
<path d="M28 14.3212V16.4368C26.862 16.9515 26.7455 17.6313 26.7455 17.6313C21.8035 17.1888 19.6598 16.3328 19.6598 16.3328C21.1739 14.9183 24.3662 14.2656 28 14.3212Z" fill="white"/>
<path d="M28 10.4217V12.8336C26.0264 12.7412 24.0255 12.866 22.0406 13.2933C22.0157 13.2987 21.9887 13.3045 21.9597 13.3106L21.9572 13.3112C21.1032 13.4936 18.5794 14.0327 17.5255 15.3709C17.5255 15.3709 16.2355 14.5149 16.0173 13.7358C15.5241 11.9371 16.7382 10.3981 18.0282 10.1096C21.3437 9.36657 24.8103 9.66573 28 10.4217Z" fill="white"/>
<path d="M24.7637 6.02053L27.005 7.35807C27.6842 7.77605 27.9702 8.34331 28 9.00611V9.02188C23.2413 7.85617 17.9601 7.67737 12.963 9.87874C12.963 9.87874 13.2191 8.81109 12.593 8.32055C11.5496 7.50298 8.7419 8.08969 8.7419 8.08969C14.1398 5.56398 19.6742 5.16725 24.7637 6.02053Z" fill="white"/>
<path fill-rule="evenodd" clip-rule="evenodd" d="M4.61569 20.2475C3.63868 21.4498 3.66713 22.7675 5.16585 23.4216C4.74849 19.6223 14.253 18.9682 26.7455 18.9586C26.7455 18.9586 19.0811 18.7374 15.8276 15.8518C12.3085 12.7258 15.7138 10.1865 15.7138 10.1865C13.9969 10.6001 4.14141 16.554 4.74849 18.6989C4.98562 19.1317 5.23225 19.6031 5.04254 19.8339L4.61569 20.2475ZM5.74321 17.9868C6.02777 17.5059 6.41667 17.3712 6.49256 17.4193C6.61587 17.5059 6.57792 18.0734 6.49256 18.4773C6.43564 18.7755 5.77166 19.2276 5.54401 19.2853C5.54401 19.2853 5.3543 18.6409 5.74321 17.9868Z" fill="white"/>
</svg>
