<svg width="32" height="32" viewBox="0 0 32 32" fill="none" xmlns="http://www.w3.org/2000/svg">
<path d="M31.2933 8.25938C31.1097 7.58107 30.7517 6.96268 30.2548 6.46579C29.7579 5.96889 29.1396 5.61083 28.4613 5.42725C25.978 4.75 15.9838 4.75 15.9838 4.75C15.9838 4.75 5.98902 4.7705 3.50577 5.44775C2.82746 5.63134 2.20908 5.98942 1.7122 6.48634C1.21533 6.98326 0.857302 7.60167 0.673774 8.28C-0.077351 12.6923 -0.368726 19.4155 0.694399 23.6513C0.877946 24.3296 1.23598 24.9479 1.73285 25.4448C2.22973 25.9417 2.8481 26.2998 3.5264 26.4834C6.00965 27.1606 16.0042 27.1606 16.0042 27.1606C16.0042 27.1606 25.9985 27.1606 28.4816 26.4834C29.16 26.2998 29.7784 25.9418 30.2753 25.4449C30.7722 24.948 31.1302 24.3296 31.3138 23.6513C32.106 19.2328 32.3501 12.5136 31.2933 8.25938Z" fill="#FF0000"/>
<path d="M12.8026 20.7576L21.0936 15.9553L12.8026 11.1531V20.7576Z" fill="white"/>
</svg>
